<svg xmlns="http://www.w3.org/2000/svg" width="22" height="20" viewBox="0 0 22 20"><path fill="#7A8291" d="M14.683 10.315l-1.256-1.253 1.253-1.254a1.767 1.767 0 0 0 0-2.503 1.765 1.765 0 0 0-2.503 0L9.67 7.81a1.766 1.766 0 0 0 0 2.504l-1.25 1.247-.625-.626a2.657 2.657 0 0 1-.002-3.756l3.135-3.136a3.543 3.543 0 0 1 5.007.009 3.544 3.544 0 0 1 .003 5.007l-1.255 1.255zm-9.394-.626v-.003l1.252 1.249L5.29 12.19a1.767 1.767 0 0 0 0 2.505c.697.695 1.813.69 2.504 0l2.506-2.506a1.766 1.766 0 0 0 0-2.504l1.249-1.249.622.625a2.654 2.654 0 0 1 .006 3.756L9.04 15.953a3.539 3.539 0 0 1-5.004-.002 3.544 3.544 0 0 1-.003-5.008L5.29 9.69z"></path></svg>