<svg xmlns="http://www.w3.org/2000/svg" width="24" height="24"><path fill="#7A8291" d="M6.2 12.3a1 1 0 0 1 1.4 1.4l-2 2a2 2 0 1 0 2.6 2.8l4.8-4.8a1 1 0 0 0 0-1.4 1 1 0 1 1 1.4-1.3 2.9 2.9 0 0 1 0 4L9.6 20a3.9 3.9 0 0 1-5.5-5.5l2-2zm11.6-.6a1 1 0 0 1-1.4-1.4l2.1-2a2 2 0 1 0-2.7-2.8L11 10.3a1 1 0 0 0 0 1.4A1 1 0 1 1 9.6 13a2.9 2.9 0 0 1 0-4L14.4 4a3.9 3.9 0 0 1 5.5 5.5l-2 2zM7.6 6.3a.8.8 0 0 1-1 1.1L3.3 4.2a.7.7 0 1 1 1-1l3.2 3.1zM5.1 8.6a.8.8 0 0 1 0 1.5H3a.8.8 0 0 1 0-1.5H5zm5-3.5a.8.8 0 0 1-1.5 0V3a.8.8 0 0 1 1.5 0V5zm6 11.8a.8.8 0 0 1 1-1l3.2 3.2a.8.8 0 0 1-1 1L16 17zm-2.2 2a.8.8 0 0 1 1.5 0V21a.8.8 0 0 1-1.5 0V19zm5-3.5a.7.7 0 1 1 0-1.5H21a.8.8 0 0 1 0 1.5H19z" fill-rule="nonzero"/></svg>