<svg height="480pt" viewBox="0 0 480 480" width="480pt" xmlns="http://www.w3.org/2000/svg"><path d="m64 40h352v320h-352zm0 0" fill="#78b9eb"/><g fill="#1a6fb0"><path d="m472 432h-16v-424c0-4.417969-3.582031-8-8-8h-416c-4.417969 0-8 3.582031-8 8v424h-16c-4.417969 0-8 3.582031-8 8v32c0 4.417969 3.582031 8 8 8h464c4.417969 0 8-3.582031 8-8v-32c0-4.417969-3.582031-8-8-8zm-8 32h-448v-16h448zm-392-32v-24c0-4.417969 3.582031-8 8-8h16c4.417969 0 8 3.582031 8 8v24zm272 0v-8c0-4.417969 3.582031-8 8-8h48c4.417969 0 8 3.582031 8 8v8zm-304-416h400v416h-16v-8c0-13.253906-10.746094-24-24-24h-48c-13.253906 0-24 10.746094-24 24v8h-160v-24h-16v24h-8v-24h-16v24h-8v-24c0-13.253906-10.746094-24-24-24h-16c-13.253906 0-24 10.746094-24 24v24h-16zm0 0"/><path d="m64 368h352c4.417969 0 8-3.582031 8-8v-320c0-4.417969-3.582031-8-8-8h-352c-4.417969 0-8 3.582031-8 8v320c0 4.417969 3.582031 8 8 8zm8-320h336v304h-336zm0 0"/></g></svg>