<svg height="640" viewBox="0 0 480 480" width="640" xmlns="http://www.w3.org/2000/svg"><path d="M64 40h352v320H64zm0 0" fill="#78b9eb"/><g fill="#1a6fb0"><path d="M472 432h-16V8a8 8 0 00-8-8H32a8 8 0 00-8 8v424H8a8 8 0 00-8 8v32a8 8 0 008 8h464a8 8 0 008-8v-32a8 8 0 00-8-8zm-8 32H16v-16h448zM72 432v-24a8 8 0 018-8h16a8 8 0 018 8v24zm272 0v-8a8 8 0 018-8h48a8 8 0 018 8v8zM40 16h400v416h-16v-8c0-13.254-10.746-24-24-24h-48c-13.254 0-24 10.746-24 24v8H168v-24h-16v24h-8v-24h-16v24h-8v-24c0-13.254-10.746-24-24-24H80c-13.254 0-24 10.746-24 24v24H40zm0 0"/><path d="M64 368h352a8 8 0 008-8V40a8 8 0 00-8-8H64a8 8 0 00-8 8v320a8 8 0 008 8zm8-320h336v304H72zm0 0"/></g></svg>