<svg height="486pt" viewBox="0 -51 486.85045 486" width="486pt" xmlns="http://www.w3.org/2000/svg"><path d="m130.25 360.457031v-104h-48.007812l72.007812-63.980469 72.007812 63.980469h-48.007812v104zm0 0" fill="#78b9eb"/><path d="m258.242188 312.457031h48.007812v-104h48v104h48.007812l-72.007812 63.984375zm0 0" fill="#78b9eb"/><g fill="#1a6fb0"><path d="m460.652344 146.203125c-7.796875-7.660156-16.9375-13.8125-26.96875-18.152344-2.625-19.125-11.535156-36.832031-25.320313-50.34375-21.832031-21.386719-53.015625-30.25-82.832031-23.542969-4.507812-10.460937-10.988281-19.953124-19.089844-27.960937-21.925781-21.441406-53.226562-30.308594-83.140625-23.558594-37.285156 8.75-64.851562 40.28125-68.546875 78.398438-16.160156-12.101563-38.730468-10.621094-53.175781 3.488281-9.449219 9.378906-13.574219 22.867188-10.992187 35.925781h-.496094c-41.6875-.445312-78.160156 27.953125-87.941406 68.480469-6.667969 29.574219 2.40625 60.496094 24 81.777344 16.78125 16.578125 39.449218 25.835937 63.039062 25.742187h17.0625c4.417969 0 8-3.578125 8-8 0-4.417969-3.582031-8-8-8h-17.0625c-7.226562.011719-14.414062-1.03125-21.335938-3.09375-11.410156-3.535156-21.824218-9.710937-30.402343-18.023437-3.925781-3.90625-7.390625-8.257813-10.316407-12.960938-.601562-.953125-1.167968-1.914062-1.722656-2.886718-1.136718-2.007813-2.222656-4-3.152344-6.128907-.285156-.65625-.511718-1.335937-.796874-2-.761719-1.855469-1.457032-3.746093-2.058594-5.65625-.214844-.710937-.4375-1.417969-.640625-2.128906-.46875-1.703125-.796875-3.4375-1.167969-5.167969-.285156-1.429687-.566406-2.847656-.796875-4.296875-.234375-1.664062-.378906-3.34375-.496094-5.03125-.160156-2.480469-.167969-4.976562-.082031-7.488281 0-1.007812 0-2.015625.089844-3.03125.246094-3.414062.730468-6.8125 1.445312-10.160156 7.445313-30.632813 33.710938-53.027344 65.136719-55.535156 2.402344-.222657 4.800781-.359376 7.199219-.359376h11.929687c.222657 0 .441407-.074218.664063-.089843 2.597656-.203125 4.929687-1.660157 6.253906-3.902344.316406-.550781.5625-1.136719.730469-1.746094 0-.070312.0625-.132812.078125-.207031.164062-.636719.25-1.292969.257812-1.953125-.003906-1.042969-.214844-2.074219-.617187-3.039063-.121094-.359374-.265625-.707031-.433594-1.046874-5.332031-9.296876-3.742187-21.019532 3.875-28.5625 9.65625-9.421876 25.0625-9.421876 34.71875 0l9.089844 8.960937c1.992187 1.96875 4.882812 2.71875 7.582031 1.96875.378906-.066406.753906-.160156 1.121094-.28125.175781-.070313.304687-.199219.472656-.285156 1.949219-.964844 3.425781-2.679688 4.085938-4.753907.242187-.773437.359374-1.582031.351562-2.390624v-8.441407c-.40625-34.367187 23.023438-64.441406 56.449219-72.449219 2.960937-.636718 5.953125-1.101562 8.96875-1.390624 12.050781-1.207032 24.21875.511718 35.464843 5.015624 6.078126 2.421876 11.804688 5.648438 17.023438 9.601563.253906.199219.480469.4375.726562.632813 8.816407 6.765624 15.882813 15.542968 20.609376 25.597656.109374.226562.253906.441406.367187.671875.398437.855469.6875 1.769531 1.054687 2.640625.738282 1.746094 1.511719 3.480468 2.113282 5.28125 1.378906 4.128906 5.808594 6.398437 9.96875 5.101562 6.464844-2.011718 13.175781-3.140625 19.941406-3.359375 20.199219-.671875 39.792969 6.949219 54.226562 21.097657 7.351563 7.238281 13.066407 15.964843 16.757813 25.597656 2.289063 5.949218 3.722656 12.1875 4.265625 18.539062 0 .125.039062.253906.046875.375 0 .8125.128906 1.625.375 2.398438.222656.660156.53125 1.289062.914063 1.871094.054687.082031.078124.195312.136718.273437.925782 1.339844 2.242188 2.363281 3.765625 2.9375 1.722657.640625 3.351563 1.40625 4.992188 2.160156 2.46875 1.121094 4.871093 2.378907 7.199219 3.765625 1.144531.679688 2.265624 1.378906 3.363281 2.113282 1.292969.871093 2.582031 1.761718 3.816406 2.710937.460937.351563.933594.703125 1.390625 1.074219 1.8125 1.449218 3.554688 2.988281 5.214844 4.613281 12.535156 12.371094 20.058594 28.933594 21.121094 46.511719.460937 6.855468-.039063 13.742187-1.488282 20.457031-2.121094 9.582031-6.296875 18.589844-12.238281 26.402344-.234375.308593-.433594.628906-.664063.933593l-.066406.074219c-14.367187 18.0625-36.214844 28.550781-59.296875 28.46875h-18.519531c-4.417969 0-8 3.582031-8 8 0 4.421875 3.582031 8 8 8h18.519531c41.691407.453125 78.167969-27.949219 87.945313-68.476562 6.648437-29.585938-2.449219-60.507813-24.0625-81.777344zm0 0"/><path d="m231.53125 250.457031-72-64c-3.019531-2.652343-7.539062-2.652343-10.558594 0l-72 64c-2.492187 2.230469-3.351562 5.761719-2.160156 8.882813 1.164062 3.09375 4.132812 5.132812 7.4375 5.117187h40v96c0 4.421875 3.582031 8 8 8h48c4.417969 0 8-3.578125 8-8v-96h40c3.308594.015625 6.273438-2.023437 7.441406-5.117187 1.1875-3.121094.328125-6.652344-2.160156-8.882813zm-53.28125-2c-4.417969 0-8 3.582031-8 8v96h-32v-96c0-4.417969-3.582031-8-8-8h-26.957031l50.957031-45.277343 50.960938 45.277343zm0 0"/><path d="m409.691406 309.578125c-1.167968-3.09375-4.132812-5.136719-7.441406-5.121094h-40v-96c0-4.417969-3.582031-8-8-8h-48c-4.417969 0-8 3.582031-8 8v96h-40c-3.304688-.015625-6.273438 2.027344-7.4375 5.121094-1.191406 3.121094-.332031 6.652344 2.160156 8.878906l72 64c3.019532 2.65625 7.539063 2.65625 10.558594 0l72-64c2.488281-2.226562 3.347656-5.757812 2.160156-8.878906zm-79.441406 56.160156-50.957031-45.28125h26.957031c4.417969 0 8-3.578125 8-8v-96h32v96c0 4.421875 3.582031 8 8 8h26.960938zm0 0"/></g></svg>