<svg height="648" viewBox="0 -51 486.85 486" width="648" xmlns="http://www.w3.org/2000/svg"><path d="M130.25 360.457v-104H82.242l72.008-63.98 72.008 63.98H178.25v104zm0 0M258.242 312.457h48.008v-104h48v104h48.008l-72.008 63.984zm0 0" fill="#78b9eb"/><g fill="#1a6fb0"><path d="M460.652 146.203a88.772 88.772 0 00-26.968-18.152 87.077 87.077 0 00-25.32-50.344 90.109 90.109 0 00-82.833-23.543 88.626 88.626 0 00-19.09-27.96 90.443 90.443 0 00-83.14-23.56c-37.285 8.75-64.852 40.282-68.547 78.399-16.16-12.102-38.73-10.621-53.176 3.488a39.755 39.755 0 00-10.992 35.926h-.496c-41.688-.445-78.16 27.953-87.942 68.48a87.726 87.726 0 0024 81.778 89.198 89.198 0 0063.04 25.742h17.062a8 8 0 000-16H89.188a74.294 74.294 0 01-21.336-3.094 76.015 76.015 0 01-30.403-18.023 71.776 71.776 0 01-10.316-12.961 74.957 74.957 0 01-1.723-2.887c-1.137-2.008-2.222-4-3.152-6.129-.285-.656-.512-1.336-.797-2a71.408 71.408 0 01-2.059-5.656c-.214-.71-.437-1.418-.64-2.129-.469-1.703-.797-3.437-1.168-5.168-.285-1.43-.567-2.848-.797-4.297-.234-1.664-.379-3.343-.496-5.031-.16-2.48-.168-4.977-.082-7.488 0-1.008 0-2.016.09-3.032.246-3.414.73-6.812 1.445-10.16 7.445-30.632 33.71-53.027 65.137-55.535 2.402-.222 4.8-.36 7.199-.36h11.93c.222 0 .44-.073.664-.089a7.985 7.985 0 006.254-3.902c.316-.551.562-1.137.73-1.746 0-.07.062-.133.078-.208a8.22 8.22 0 00.258-1.953 7.971 7.971 0 00-.617-3.039 8.438 8.438 0 00-.434-1.047 23.644 23.644 0 013.875-28.562c9.656-9.422 25.063-9.422 34.719 0l9.09 8.96a7.808 7.808 0 007.582 1.97c.379-.067.754-.16 1.12-.282.177-.07.306-.199.474-.285a8.02 8.02 0 004.085-4.754c.243-.773.36-1.582.352-2.39v-8.442c-.406-34.367 23.023-64.441 56.45-72.449a78.086 78.086 0 018.968-1.39 75.23 75.23 0 0135.465 5.015 72.844 72.844 0 0117.023 9.602c.254.199.48.437.727.632a69.577 69.577 0 0120.61 25.598c.109.227.253.441.366.672.399.855.688 1.77 1.055 2.64.738 1.747 1.512 3.481 2.113 5.282a7.999 7.999 0 009.97 5.101 75.32 75.32 0 0119.94-3.359 73.949 73.949 0 0154.227 21.098 72.158 72.158 0 0116.758 25.597 67.658 67.658 0 014.266 18.54c0 .124.039.253.046.374 0 .813.13 1.625.375 2.399.223.66.532 1.289.914 1.87.055.083.079.196.137.274a8.01 8.01 0 003.766 2.938c1.722.64 3.351 1.406 4.992 2.16a73.266 73.266 0 017.2 3.766 73.833 73.833 0 013.362 2.113c1.293.871 2.583 1.762 3.817 2.71.46.352.933.704 1.39 1.075a69.515 69.515 0 015.215 4.613 71.4 71.4 0 0121.121 46.512 73.576 73.576 0 01-1.488 20.457 67.837 67.837 0 01-12.238 26.402c-.235.31-.434.63-.664.934l-.067.074a75.422 75.422 0 01-59.296 28.469h-18.52a8 8 0 000 16h18.52c41.69.453 78.168-27.95 87.945-68.477a87.743 87.743 0 00-24.063-81.777zm0 0"/><path d="M231.531 250.457l-72-64a8 8 0 00-10.558 0l-72 64a8.061 8.061 0 00-2.16 8.883 7.904 7.904 0 007.437 5.117h40v96c0 4.422 3.582 8 8 8h48c4.418 0 8-3.578 8-8v-96h40a7.91 7.91 0 007.441-5.117 8.075 8.075 0 00-2.16-8.883zm-53.281-2a8 8 0 00-8 8v96h-32v-96a8 8 0 00-8-8h-26.957l50.957-45.277 50.96 45.277zm0 0M409.691 309.578a7.913 7.913 0 00-7.441-5.121h-40v-96a8 8 0 00-8-8h-48a8 8 0 00-8 8v96h-40a7.908 7.908 0 00-7.438 5.121 8.053 8.053 0 002.16 8.879l72 64a7.991 7.991 0 0010.56 0l72-64a8.067 8.067 0 002.16-8.879zm-79.441 56.16l-50.957-45.281h26.957c4.418 0 8-3.578 8-8v-96h32v96c0 4.422 3.582 8 8 8h26.96zm0 0"/></g></svg>