<svg height="640" viewBox="0 0 480 480" width="640" xmlns="http://www.w3.org/2000/svg"><path d="M248 48c0-22.09-53.727-40-120-40S8 25.91 8 48s53.727 40 120 40 120-17.91 120-40zm0 0M424 376h-28.121l2.914-2.91c15.984-15.934 18.691-40.863 6.492-59.852-12.2-18.992-35.996-26.898-57.133-18.98-20.746-34.153-63.601-47.617-100.152-31.473a80.407 80.407 0 00-36.152 31.473c-21.137-7.918-44.934-.012-57.133 18.98-12.2 18.989-9.492 43.918 6.492 59.852l2.914 2.91H136c-26.508 0-48 21.492-48 48s21.492 48 48 48h288c26.508 0 48-21.492 48-48s-21.492-48-48-48zm-184-16v-8h-56v40h56v40h-56 56v-40h-56v-40h56zm72 72h-48v-80h56v80h-8l16 16zm88 0h-56v-80 80zm0 0" fill="#78b9eb"/><path d="M320 352h-56v80h48l-16-16 16 16h8zm0 0" fill="#78b9eb"/><g fill="#1a6fb0"><path d="M352 344h-8a8 8 0 00-8 8v80a8 8 0 008 8h56a8 8 0 008-8v-8h-56zm0 0M328 432v-80a8 8 0 00-8-8h-56a8 8 0 00-8 8v80a8 8 0 008 8h44.688l13.656 13.656 11.312-11.312-6.664-6.664A7.794 7.794 0 00328 432zm-56-8v-64h40v60.688l-10.344-10.344-11.312 11.312 2.344 2.344zm0 0M240 344h-56a8 8 0 00-8 8v48h56v24h-56v8a8 8 0 008 8h56a8 8 0 008-8v-48h-56v-24h56v-8a8 8 0 00-8-8zm0 0"/><path d="M424 368h-11.121c11.7-19.367 10.562-43.879-2.875-62.086-13.441-18.203-36.527-26.508-58.484-21.035A87.316 87.316 0 00280 248a88.76 88.76 0 00-24 3.441V48c0-31.52-64.398-48-128-48S0 16.48 0 48v240c0 31.52 64.398 48 128 48 3.762 0 7.52-.078 11.441-.238a56.075 56.075 0 007.68 32.238H136c-30.93 0-56 25.07-56 56s25.07 56 56 56h288c30.93 0 56-25.07 56-56s-25.07-56-56-56zM128 16c68.398 0 112 18.96 112 32s-43.602 32-112 32S16 61.04 16 48s43.602-32 112-32zM16 72.48C39.04 88 83.68 96 128 96s88.96-8 112-23.52V128c0 13.04-43.602 32-112 32S16 141.04 16 128zm0 80C39.04 168 83.68 176 128 176s88.96-8 112-23.52V208c0 13.04-43.602 32-112 32S16 221.04 16 208zm126.879 167.122c-5.117.238-10.078.398-14.879.398-68.398 0-112-18.96-112-32v-55.52C39.04 248 83.68 256 128 256s88.96-8 112-23.52v25.122a88.032 88.032 0 00-31.52 27.277c-27.554-7.11-55.984 7.941-65.601 34.723zM424 464H136c-22.09 0-40-17.91-40-40s17.91-40 40-40h28.078a7.996 7.996 0 007.438-4.934c1.246-3 .55-6.457-1.754-8.746l-2.883-2.879c-13.309-13.273-15.563-34.027-5.41-49.843 10.156-15.817 29.965-22.414 47.57-15.836a8.005 8.005 0 009.602-3.282c13.035-21.41 36.293-34.476 61.359-34.476s48.324 13.066 61.36 34.476a8.005 8.005 0 009.6 3.282c17.606-6.578 37.415.02 47.571 15.836 10.153 15.816 7.899 36.57-5.41 49.843l-2.883 2.88a8.003 8.003 0 00-1.754 8.745 7.996 7.996 0 007.438 4.934H424c22.09 0 40 17.91 40 40s-17.91 40-40 40zm0 0"/></g></svg>