<svg height="480pt" viewBox="-2 0 480 480.00004" width="480pt" xmlns="http://www.w3.org/2000/svg"><path d="m398.121094 88h-320l-32 96h384zm0 0" fill="#78b9eb"/><path d="m470.121094 184c-2.230469-2.488281-4.953125-4.484375-8-5.863281v-106.136719c0-13.253906-10.746094-24-24-24h-283.71875l-29.601563-44.441406c-1.488281-2.230469-3.996093-3.5664065-6.679687-3.558594h-80c-13.253906 0-24 10.746094-24 24v154.136719c-9.476563 4.28125-15.117188 14.175781-13.976563 24.511719l28.449219 256c1.347656 12.152343 11.621094 21.347656 23.847656 21.351562h371.359375c12.230469-.003906 22.5-9.199219 23.847657-21.351562l28.449218-256c.75-6.785157-1.421875-13.566407-5.976562-18.648438zm-440-160c0-4.417969 3.582031-8 8-8h75.71875l29.601562 44.441406c1.488282 2.230469 3.996094 3.566406 6.679688 3.558594h288c4.417968 0 8 3.582031 8 8v104h-10.238282l-30.175781-90.527344c-1.089843-3.265625-4.144531-5.46875-7.585937-5.472656h-320c-3.441406.003906-6.496094 2.207031-7.582032 5.472656l-30.175781 90.527344h-10.242187zm43.105468 104h329.792969l5.335938 16h-340.464844zm5.328126-16 5.335937-16h308.464844l5.335937 16zm-16 48h351.136718l5.328125 16h-361.792969zm369.167968 296.878906c-.449218 4.050782-3.871094 7.117188-7.945312 7.121094h-371.335938c-4.074218-.003906-7.496094-3.070312-7.945312-7.121094l-28.445313-256c-.25-2.257812.472657-4.519531 1.988281-6.210937 1.515626-1.695313 3.679688-2.664063 5.953126-2.667969h428.257812c2.273438.003906 4.4375.972656 5.953125 2.667969 1.515625 1.691406 2.242187 3.953125 1.992187 6.210937zm0 0" fill="#1a6fb0"/></svg>