<svg height="640" viewBox="-2 0 480 480" width="640" xmlns="http://www.w3.org/2000/svg"><path d="M398.121 88h-320l-32 96h384zm0 0" fill="#78b9eb"/><path d="M470.121 184a24.066 24.066 0 00-8-5.863V72c0-13.254-10.746-24-24-24H154.402L124.801 3.559A8 8 0 00118.12 0h-80c-13.254 0-24 10.746-24 24v154.137A24.005 24.005 0 00.145 202.648l28.449 256C29.94 470.801 40.214 479.996 52.44 480h371.36c12.23-.004 22.5-9.2 23.847-21.352l28.45-256A23.988 23.988 0 00470.12 184zm-440-160a8 8 0 018-8h75.719l29.601 44.441a8 8 0 006.68 3.559h288a8 8 0 018 8v104h-10.238l-30.176-90.527A8.007 8.007 0 00398.121 80h-320a7.999 7.999 0 00-7.582 5.473L40.363 176H30.121zm43.106 104H403.02l5.335 16H67.891zm5.328-16l5.336-16h308.464l5.336 16zm-16 48H413.69l5.329 16H57.227zm369.168 296.879a8.003 8.003 0 01-7.946 7.121H52.441a8.003 8.003 0 01-7.945-7.121l-28.445-256A8.001 8.001 0 0123.992 192H452.25a8.001 8.001 0 015.953 2.668 7.996 7.996 0 011.992 6.21zm0 0" fill="#1a6fb0"/></svg>