<svg height="480pt" viewBox="-24 0 480 480" width="480pt" xmlns="http://www.w3.org/2000/svg"><path d="m88 240h256v232h80v-400l-64-64h-16v160h-256v-160h-80v464h80zm0 0" fill="#78b9eb"/><g fill="#1a6fb0"><path d="m429.65625 66.34375-64-64c-1.5-1.5-3.535156-2.34375-5.65625-2.34375h-352c-4.417969 0-8 3.582031-8 8v464c0 4.417969 3.582031 8 8 8h416c4.417969 0 8-3.582031 8-8v-400c0-2.121094-.84375-4.15625-2.34375-5.65625zm-93.65625-50.34375v144h-240v-144zm-240 448v-216h240v216zm320 0h-64v-224c0-4.417969-3.582031-8-8-8h-256c-4.417969 0-8 3.582031-8 8v224h-64v-448h64v152c0 4.417969 3.582031 8 8 8h256c4.417969 0 8-3.582031 8-8v-152h4.6875l59.3125 59.3125zm0 0"/><path d="m280 144h32c4.417969 0 8-3.582031 8-8v-96c0-4.417969-3.582031-8-8-8h-32c-4.417969 0-8 3.582031-8 8v96c0 4.417969 3.582031 8 8 8zm8-96h16v80h-16zm0 0"/><path d="m112 256h32v16h-32zm0 0"/><path d="m152 256h32v16h-32zm0 0"/></g></svg>