<svg xmlns="http://www.w3.org/2000/svg" xmlns:xlink="http://www.w3.org/1999/xlink" version="1.0" width="400" height="400" viewBox="0 0 442.857 442.857"><defs><linearGradient x1="42.986" y1="7.013" x2="22.014" y2="51.987" id="a" gradientUnits="userSpaceOnUse"><stop offset="0" stop-color="#f54c4c"/><stop offset=".5" stop-color="#ba1313"/><stop offset="1" stop-color="#9a1919"/></linearGradient><linearGradient xlink:href="#a" id="c" gradientUnits="userSpaceOnUse" gradientTransform="translate(0 380.857)" x1="23.662" y1="15.997" x2="61.427" y2="57.237"/><filter id="b"><feGaussianBlur stdDeviation="5.79"/></filter></defs><path style="text-indent:0;text-align:start;line-height:normal;text-transform:none;block-progression:tb;marker:none;-inkscape-font-specification:Bitstream Vera Sans" d="M139.038 29.085c-36.502 37.181-73.854 73.83-110.594 110.906v163.063c37.211 37.006 74.337 74.101 111.281 111.375h163.407c36.944-37.274 74.07-74.369 111.28-111.375V139.99C377.374 102.73 340.003 65.797 303.07 28.43H139.632l-.594.656zm154.937 21.344l98.47 98.468V293.93l-98.5 98.5H148.912l-98.5-98.5V148.897l98.469-98.468h145.093z" transform="matrix(.94265 0 0 .94265 21.557 21.557)" font-weight="400" color="#000" fill="#777" fill-opacity=".796" overflow="visible" filter="url(#b)" enable-background="accumulate" font-family="Bitstream Vera Sans"/><path d="M57 422.857l-15 15H20l-15-15v-22l15-15h22l15 15v22z" fill="url(#c)" stroke="#870000" stroke-width=".474" transform="matrix(7 0 0 7 4.429 -2661.571)"/><path fill="#fff" d="M116.144 290.844l174.697-174.696 35.87 35.87-174.696 174.697z"/><path fill="#fff" d="M115.813 151.682l35.87-35.87 175.365 175.364-35.87 35.87z"/></svg>