<svg height="496pt" viewBox="0 -20 496 496" width="496pt" xmlns="http://www.w3.org/2000/svg"><path d="m16 48v-24c0-8.835938 7.164062-16 16-16h96l16 40zm0 0" fill="#78b9eb"/><path d="m272 376c0 13.253906-10.746094 24-24 24s-24-10.746094-24-24 10.746094-24 24-24 24 10.746094 24 24zm0 0" fill="#78b9eb"/><path d="m488 440h-232v-33.121094c14.121094-3.59375 24.007812-16.308594 24.007812-30.878906s-9.886718-27.285156-24.007812-30.878906v-33.121094h208c13.238281-.039062 23.960938-10.761719 24-24v-224c-.039062-13.238281-10.761719-23.960938-24-24h-314.558594l-14-34.960938c-1.214844-3.042968-4.164062-5.04296825-7.441406-5.039062h-96c-13.238281.0390625-23.960938 10.761719-24 24v264c.039062 13.238281 10.761719 23.960938 24 24h208v33.121094c-14.121094 3.59375-24.007812 16.308594-24.007812 30.878906s9.886718 27.285156 24.007812 30.878906v33.121094h-232c-4.417969 0-8 3.582031-8 8s3.582031 8 8 8h480c4.417969 0 8-3.582031 8-8s-3.582031-8-8-8zm-464-416c0-4.417969 3.582031-8 8-8h90.558594l9.601562 24h-108.160156zm8 272c-4.417969 0-8-3.582031-8-8v-232h440c4.417969 0 8 3.582031 8 8v224c0 4.417969-3.582031 8-8 8zm200 80c0-8.835938 7.164062-16 16-16s16 7.164062 16 16-7.164062 16-16 16c-8.824219-.027344-15.972656-7.175781-16-16zm0 0" fill="#1a6fb0"/></svg>