<?xml version="1.0" encoding="UTF-8"?>
<svg viewBox="0 0 100 100" version="1.1" xmlns="http://www.w3.org/2000/svg">
		
	<circle cx="46" cy="49" r="40" fill="rgba(241, 249, 255, .5)"/>
	<circle cx="25" cy="20" r="13" fill="rgba(136, 212, 234, .5)"/>
	<circle cx="17" cy="37" r="16" fill="rgba(241, 249, 255, .5)"/>
	<circle cx="17" cy="56" r="16" fill="rgba(217, 242, 255, .5)"/>
	<circle cx="26" cy="73" r="16" fill="rgba(241, 249, 255, .5)"/>
	<circle cx="49" cy="83" r="16" fill="rgba(217, 242, 255, .5"/>
	<circle cx="67" cy="79" r="13" fill="rgba(250, 255, 255, .5)"/>
	<circle cx="82" cy="65" r="16" fill="rgba(189, 245, 255, .5)"/>
	<circle cx="82" cy="44" r="15" fill="rgba(230, 255, 255, .5)"/>
	<circle cx="70" cy="23" r="16" fill="rgba(217, 242, 255, .5"/>
	<circle cx="48" cy="16" r="16" fill="rgba(205, 249, 255, .5)"/>

	<path stroke="#000000" stroke-width="3" fill="none" d="M 9,48 
	C 6 22  23 23  23 19
	C 20 15  25 5  32 14
	C 35 10  50 0  52 8	
	" />
	
	<text x="50%" y="32" dominant-baseline="middle" text-anchor="middle" font-size="24" font-family="sans-serif" font-weight="bold">web</text>
	
	<text x="50%" y="58" dominant-baseline="middle" text-anchor="middle" font-size="32" font-family="monospace" font-weight="bold">IDE</text>
	
	<path stroke="#000000" stroke-width="3" fill="none" d="M 47,88 
	C 54 99  57 94  70 83
	C 81 88  78 80  78 78
	C 79 70  96 73  91 56		
	" />
	   
</svg>
