<svg height="480pt" viewBox="0 -12 480 480" width="480pt" xmlns="http://www.w3.org/2000/svg"><path d="m8 296v48h464v-48zm0 0" fill="#78b9eb"/><g fill="#1a6fb0"><path d="m456 0h-432c-13.253906 0-24 10.746094-24 24v320c0 4.417969 3.582031 8 8 8h174.679688l-13.542969 88h-17.136719v16h176v-16h-17.136719l-13.542969-88h174.679688c4.417969 0 8-3.582031 8-8v-320c0-13.253906-10.746094-24-24-24zm-432 16h432c4.417969 0 8 3.582031 8 8v264h-448v-264c0-4.417969 3.582031-8 8-8zm270.671875 424h-109.34375l13.535156-88h82.273438zm-278.671875-104v-32h448v32zm0 0"/><path d="m224 312h32v16h-32zm0 0"/></g></svg>