<svg height="480pt" viewBox="0 0 480 480" width="480pt" xmlns="http://www.w3.org/2000/svg"><path d="m32 32h416v48h-416zm0 0" fill="#78b9eb"/><path d="m120 192.015625 63.96875 31.984375-63.96875 31.984375zm0 0" fill="#78b9eb"/><path d="m160 472h160l-32-40h-96zm0 0" fill="#78b9eb"/><g fill="#1a6fb0"><path d="m472 0h-464c-4.417969 0-8 3.582031-8 8v352c0 4.417969 3.582031 8 8 8h208.238281c-10.167969 7.5-16.1875 19.367188-16.238281 32 .023438 8.691406 2.921875 17.128906 8.238281 24h-16.238281c-2.433594.011719-4.730469 1.128906-6.238281 3.039062l-32 40c-1.929688 2.375-2.304688 5.652344-.960938 8.402344 1.324219 2.777344 4.121094 4.550782 7.199219 4.558594h160c3.078125-.007812 5.875-1.78125 7.199219-4.558594 1.34375-2.75.96875-6.027344-.960938-8.402344l-32-40c-1.507812-1.910156-3.804687-3.027343-6.238281-3.039062h-16.238281c5.316406-6.871094 8.214843-15.308594 8.238281-24-.050781-12.632812-6.070312-24.5-16.238281-32h208.238281c4.417969 0 8-3.582031 8-8v-352c0-4.417969-3.582031-8-8-8zm-187.839844 440 19.199219 24h-126.71875l19.199219-24zm-20.160156-40c0 13.253906-10.746094 24-24 24s-24-10.746094-24-24 10.746094-24 24-24c13.238281.039062 23.960938 10.761719 24 24zm200-48h-448v-336h448zm0 0"/><path d="m448 24h-416c-4.417969 0-8 3.582031-8 8v304c0 4.417969 3.582031 8 8 8h416c4.417969 0 8-3.582031 8-8v-304c0-4.417969-3.582031-8-8-8zm-8 304h-400v-240h400zm0-256h-400v-32h400zm0 0"/><path d="m48 48h16v16h-16zm0 0"/><path d="m80 48h16v16h-16zm0 0"/><path d="m112 48h16v16h-16zm0 0"/><path d="m416 48h16v16h-16zm0 0"/><path d="m248 144h-184c-4.417969 0-8 3.582031-8 8v144c0 4.417969 3.582031 8 8 8h184c4.417969 0 8-3.582031 8-8v-144c0-4.417969-3.582031-8-8-8zm-8 144h-168v-128h168zm0 0"/><path d="m64 112h104v16h-104zm0 0"/><path d="m184 112h64v16h-64zm0 0"/><path d="m392 192h32v16h-32zm0 0"/><path d="m376 208v-16h-112v16zm0 0"/><path d="m352 240h16v16h-16zm0 0"/><path d="m376 240h16v16h-16zm0 0"/><path d="m408 240h16v16h-16zm0 0"/><path d="m312 240h32v16h-32zm0 0"/><path d="m264 240h32v16h-32zm0 0"/><path d="m264 216h16v16h-16zm0 0"/><path d="m296 216h16v16h-16zm0 0"/><path d="m328 216v16h96v-16zm0 0"/><path d="m187.601562 216.878906-64-32c-2.476562-1.246094-5.421874-1.125-7.785156.328125-2.363281 1.449219-3.808594 4.019531-3.816406 6.792969v64c-.003906 2.765625 1.417969 5.335938 3.761719 6.800781 1.273437.78125 2.742187 1.199219 4.238281 1.199219 1.25-.015625 2.480469-.316406 3.601562-.878906l64-32c2.671876-1.371094 4.351563-4.121094 4.351563-7.121094s-1.679687-5.75-4.351563-7.121094zm-59.601562 26.160156v-38.078124l38.078125 19.039062zm0 0"/></g></svg>