<svg height="640" viewBox="0 0 480 480" width="640" xmlns="http://www.w3.org/2000/svg"><path d="M32 32h416v48H32zm0 0M120 192.016L183.969 224 120 255.984zm0 0M160 472h160l-32-40h-96zm0 0" fill="#78b9eb"/><g fill="#1a6fb0"><path d="M472 0H8a8 8 0 00-8 8v352a8 8 0 008 8h208.238A39.962 39.962 0 00200 400a39.394 39.394 0 008.238 24H192a7.995 7.995 0 00-6.238 3.04l-32 40a7.854 7.854 0 00-.961 8.401A7.998 7.998 0 00160 480h160a7.998 7.998 0 007.2-4.559 7.854 7.854 0 00-.962-8.402l-32-40A7.995 7.995 0 00288 424h-16.238A39.394 39.394 0 00280 400a39.962 39.962 0 00-16.238-32H472a8 8 0 008-8V8a8 8 0 00-8-8zM284.16 440l19.2 24H176.64l19.2-24zM264 400c0 13.254-10.746 24-24 24s-24-10.746-24-24 10.746-24 24-24c13.238.04 23.96 10.762 24 24zm200-48H16V16h448zm0 0"/><path d="M448 24H32a8 8 0 00-8 8v304a8 8 0 008 8h416a8 8 0 008-8V32a8 8 0 00-8-8zm-8 304H40V88h400zm0-256H40V40h400zm0 0"/><path d="M48 48h16v16H48zm0 0M80 48h16v16H80zm0 0M112 48h16v16h-16zm0 0M416 48h16v16h-16zm0 0M248 144H64a8 8 0 00-8 8v144a8 8 0 008 8h184a8 8 0 008-8V152a8 8 0 00-8-8zm-8 144H72V160h168zm0 0M64 112h104v16H64zm0 0M184 112h64v16h-64zm0 0M392 192h32v16h-32zm0 0M376 208v-16H264v16zm0 0M352 240h16v16h-16zm0 0M376 240h16v16h-16zm0 0M408 240h16v16h-16zm0 0M312 240h32v16h-32zm0 0M264 240h32v16h-32zm0 0M264 216h16v16h-16zm0 0M296 216h16v16h-16zm0 0M328 216v16h96v-16zm0 0"/><path d="M187.602 216.879l-64-32a7.998 7.998 0 00-7.786.328A7.996 7.996 0 00112 192v64a8.005 8.005 0 003.762 6.8A8.113 8.113 0 00120 264a8.26 8.26 0 003.602-.879l64-32a8.006 8.006 0 004.351-7.121c0-3-1.68-5.75-4.351-7.121zM128 243.039v-38.078L166.078 224zm0 0"/></g></svg>