<svg height="640" viewBox="0 0 480 480" width="640" xmlns="http://www.w3.org/2000/svg"><path d="M8 8h464v48H8zm0 0M472 360c0 61.855-50.145 112-112 112s-112-50.145-112-112 50.145-112 112-112 112 50.145 112 112zm0 0" fill="#78b9eb"/><g fill="#1a6fb0"><path d="M472 0H8a8 8 0 00-8 8v464a8 8 0 008 8h464a8 8 0 008-8V8a8 8 0 00-8-8zm-8 464h-44.398A120.665 120.665 0 00464 419.602zm-104 0c-57.438 0-104-46.563-104-104s46.563-104 104-104 104 46.563 104 104c-.055 57.414-46.586 103.945-104 104zm104-163.602c-25.078-43.87-74.969-67.312-124.75-58.609-49.777 8.703-88.758 47.684-97.46 97.461-8.704 49.781 14.737 99.672 58.608 124.75H16V64h448zM464 48H16V16h448zm0 0"/><path d="M368 352v-72h-16v72h-72v16h72v64h16v-64h72v-16zm0 0M440 24h16v16h-16zm0 0M416 24h16v16h-16zm0 0M392 24h16v16h-16zm0 0"/></g></svg>