<svg height="480pt" viewBox="0 0 480 480" width="480pt" xmlns="http://www.w3.org/2000/svg"><path d="m8 8h464v48h-464zm0 0" fill="#78b9eb"/><path d="m472 360c0 61.855469-50.144531 112-112 112s-112-50.144531-112-112 50.144531-112 112-112 112 50.144531 112 112zm0 0" fill="#78b9eb"/><g fill="#1a6fb0"><path d="m472 0h-464c-4.417969 0-8 3.582031-8 8v464c0 4.417969 3.582031 8 8 8h464c4.417969 0 8-3.582031 8-8v-464c0-4.417969-3.582031-8-8-8zm-8 464h-44.398438c18.457032-10.621094 33.777344-25.941406 44.398438-44.398438zm-104 0c-57.4375 0-104-46.5625-104-104s46.5625-104 104-104 104 46.5625 104 104c-.054688 57.414062-46.585938 103.945312-104 104zm104-163.601562c-25.078125-43.871094-74.96875-67.3125-124.75-58.609376-49.777344 8.703126-88.757812 47.683594-97.460938 97.460938-8.703124 49.78125 14.738282 99.671875 58.609376 124.75h-284.398438v-400h448zm0-252.398438h-448v-32h448zm0 0"/><path d="m368 352v-72h-16v72h-72v16h72v64h16v-64h72v-16zm0 0"/><path d="m440 24h16v16h-16zm0 0"/><path d="m416 24h16v16h-16zm0 0"/><path d="m392 24h16v16h-16zm0 0"/></g></svg>