<?xml version="1.0" standalone="no"?>
<!DOCTYPE svg PUBLIC "-//W3C//DTD SVG 20010904//EN"
 "http://www.w3.org/TR/2001/REC-SVG-20010904/DTD/svg10.dtd">
<svg version="1.0" xmlns="http://www.w3.org/2000/svg"
 width="700.000000pt" height="700.000000pt" viewBox="0 0 700.000000 700.000000"
 preserveAspectRatio="xMidYMid meet">
<metadata>
Created by potrace 1.11, written by Peter Selinger 2001-2013
</metadata>
<g transform="translate(0.000000,700.000000) scale(0.100000,-0.100000)"
fill="#000000" stroke="none">
<path d="M3298 6755 c-2 -2 -22 -5 -46 -9 -209 -28 -548 -196 -827 -410 -44
-33 -82 -63 -85 -67 -3 -3 -26 -24 -52 -47 l-46 -43 -44 42 c-202 193 -439
210 -605 41 -130 -133 -185 -379 -122 -549 25 -64 27 -60 -86 -116 -315 -156
-291 -144 -360 -186 -260 -160 -426 -407 -463 -691 -8 -69 -9 -255 0 -335 11
-97 29 -195 38 -200 8 -5 190 32 198 40 2 2 -1 27 -7 57 -42 209 -32 442 26
591 27 68 101 177 163 237 80 79 180 143 365 233 208 101 221 109 277 154 51
42 85 99 91 156 3 28 -3 52 -26 95 -26 49 -31 67 -30 132 0 98 30 178 88 235
111 112 248 51 435 -192 30 -40 57 -72 60 -72 3 0 28 30 55 66 191 256 683
566 985 621 66 12 147 5 183 -16 18 -10 41 -36 52 -57 11 -22 21 -42 23 -44 5
-9 202 43 202 53 0 19 -48 115 -76 151 -32 43 -101 89 -163 110 -38 12 -194
28 -203 20z"/>
<path d="M4389 5576 c-1 -1 -2 -288 -3 -638 l-1 -638 146 0 147 0 0 53 c0 28
1 57 1 63 1 7 22 -10 49 -36 48 -48 113 -85 167 -95 273 -51 476 154 473 478
-2 159 -47 283 -137 374 -68 68 -137 97 -238 100 -123 3 -192 -23 -270 -104
-39 -40 -43 -42 -44 -21 0 13 -1 122 -2 243 l-2 220 -142 1 c-79 1 -144 1
-144 0z m543 -557 c77 -21 127 -108 133 -232 9 -183 -65 -297 -192 -297 -123
0 -193 97 -193 268 0 199 101 304 252 261z"/>
<path d="M3530 5224 c-135 -32 -243 -111 -298 -219 -48 -95 -66 -256 -42 -375
40 -190 183 -313 400 -345 57 -9 182 -9 240 0 86 12 106 16 182 36 113 30 109
26 106 151 l-3 108 -55 -26 c-210 -99 -425 -107 -519 -21 -28 26 -60 92 -61
125 l0 22 340 0 c265 0 340 3 341 13 6 61 -4 181 -19 232 -42 141 -158 253
-308 298 -64 19 -228 20 -304 1z m237 -197 c15 -8 36 -23 45 -34 22 -24 48
-86 48 -113 0 -19 -6 -20 -190 -20 -116 0 -190 4 -190 10 0 26 51 120 74 135
65 43 154 52 213 22z"/>
<path d="M1632 5143 c11 -43 55 -211 97 -373 43 -162 89 -334 101 -382 l23
-88 161 0 161 0 29 123 c16 67 31 127 32 132 84 353 96 385 110 305 3 -14 12
-52 21 -85 8 -33 17 -69 20 -80 6 -28 4 -21 53 -217 l44 -178 158 0 c86 0 159
3 162 8 2 4 48 174 101 377 54 204 107 406 120 450 l22 80 -140 3 c-77 1 -142
1 -144 -2 -3 -2 -39 -143 -81 -313 -67 -274 -77 -304 -85 -273 -4 19 -13 51
-18 70 -5 19 -36 143 -67 275 l-59 240 -123 0 -124 0 -8 -30 c-5 -16 -39 -156
-77 -310 -64 -264 -68 -278 -79 -245 -9 30 -74 294 -129 528 l-15 62 -143 0
-143 0 20 -77z"/>
<path d="M1910 3960 l-245 -5 0 -135 c0 -96 3 -136 12 -140 7 -3 80 -5 163 -4
l150 1 0 -533 0 -533 -156 1 c-85 0 -158 -3 -161 -6 -4 -3 -7 -67 -7 -141 l-1
-135 488 0 487 0 0 140 0 140 -52 1 c-29 0 -103 0 -163 0 l-111 0 0 530 c0
291 3 530 6 530 3 1 73 3 155 5 83 1 153 3 158 3 4 1 7 64 7 141 l0 140 -192
1 c-106 0 -215 1 -243 2 -27 1 -160 0 -295 -3z"/>
<path d="M4471 3960 l-114 -5 -1 -803 c-1 -442 1 -808 5 -813 6 -10 997 -14
1007 -4 4 3 7 67 7 141 l0 134 -100 0 c-55 1 -211 1 -347 1 l-248 0 0 214 0
215 315 0 316 0 -3 142 -3 143 -310 0 -310 0 0 175 0 175 335 1 c185 0 340 3
346 6 13 9 12 270 -2 275 -17 6 -771 8 -893 3z"/>
<path d="M2976 3153 c1 -444 2 -812 3 -818 1 -7 96 -8 278 -4 216 5 289 10
328 22 28 9 50 16 50 15 0 -5 63 20 122 49 86 42 160 113 208 198 35 63 72
166 81 225 3 19 7 42 9 50 17 65 24 339 11 445 -38 309 -162 494 -383 570
-126 44 -199 52 -473 54 l-235 2 1 -808z m522 503 c175 -47 242 -198 237 -531
-3 -169 -8 -204 -37 -293 -27 -86 -71 -140 -141 -176 -49 -25 -72 -30 -157
-34 l-100 -4 0 136 c0 75 0 246 0 381 0 135 0 310 0 390 l0 145 73 0 c39 0 96
-7 125 -14z"/>
<path d="M6415 3095 c-22 -8 -58 -19 -80 -24 -65 -18 -66 -19 -49 -86 31 -117
42 -211 39 -320 -5 -174 -52 -283 -167 -392 -57 -53 -188 -143 -268 -184 -77
-39 -253 -141 -295 -171 -122 -88 -217 -222 -231 -326 -3 -24 -7 -50 -8 -59
-2 -9 1 -35 5 -57 5 -23 11 -86 15 -141 6 -91 5 -102 -14 -125 -18 -23 -27
-25 -89 -23 -71 2 -215 43 -302 87 -85 43 -86 43 -154 -16 -34 -30 -73 -64
-87 -76 -34 -28 -56 -48 -126 -108 -32 -28 -115 -100 -184 -159 -69 -59 -136
-117 -150 -129 -113 -97 -257 -197 -345 -237 -127 -60 -221 -39 -336 75 -51
50 -151 177 -186 237 -9 16 -22 29 -28 29 -5 0 -47 -24 -92 -54 l-83 -53 51
-74 c205 -297 381 -419 583 -402 61 5 189 46 227 73 15 11 31 20 35 20 15 0
256 176 306 223 7 7 40 34 73 62 33 27 74 62 90 77 17 14 41 36 55 48 134 115
209 181 244 212 45 41 63 45 109 23 129 -59 336 -87 427 -57 67 22 129 77 159
141 22 48 26 71 28 157 0 55 -3 122 -8 150 -16 81 -13 127 10 172 36 71 127
147 261 220 28 15 58 32 68 37 9 6 53 30 97 54 381 210 530 439 520 800 -2 69
-6 140 -10 156 -20 107 -29 144 -41 187 -8 26 -18 48 -22 47 -4 0 -25 -7 -47
-14z"/>
</g>
</svg>
