<svg height="482pt" viewBox="0 0 482.18821 482" width="482pt" xmlns="http://www.w3.org/2000/svg"><path d="m472.046875 65.558594c0 30.925781-25.074219 56-56 56-30.929687 0-56-25.074219-56-56 0-30.929688 25.070313-56 56-56 30.925781 0 56 25.070312 56 56zm0 0" fill="#78b9eb"/><path d="m472.046875 417.558594c0 30.925781-25.074219 56-56 56-30.929687 0-56-25.074219-56-56 0-30.929688 25.070313-56 56-56 30.925781 0 56 25.070312 56 56zm0 0" fill="#78b9eb"/><path d="m416.046875 353.558594c-22.40625.035156-43.160156 11.785156-54.722656 30.976562l-237.175781-121.199218c5.125-13.859376 5.195312-29.078126.210937-42.984376l238.503906-119.257812c18.980469 28.667969 56.988281 37.617188 86.769531 20.4375 29.78125-17.183594 41.058594-54.566406 25.742188-85.347656-15.3125-30.785156-51.929688-44.339844-83.597656-30.953125-31.667969 13.390625-47.457032 49.101562-36.042969 81.535156l-238.503906 119.257813c-15.625-23.40625-44.699219-33.859376-71.648438-25.761719-26.949219 8.097656-45.445312 32.847656-45.582031 60.984375-.132812 28.140625 18.125 53.066406 44.996094 61.421875 26.867187 8.355469 56.042968-1.816407 71.890625-25.070313l237.886719 121.558594c-7.933594 26.433594 1.96875 54.972656 24.566406 70.8125 22.597656 15.835938 52.804687 15.40625 74.941406-1.070312 22.136719-16.472657 31.222656-45.285157 22.539062-71.480469-8.683593-26.191407-33.179687-43.871094-60.773437-43.859375zm0-336c26.507813 0 48 21.488281 48 48 0 26.507812-21.492187 48-48 48-26.511719 0-48-21.492188-48-48 .023437-26.5 21.5-47.972656 48-48zm-352 272c-26.511719 0-48-21.492188-48-48 0-26.511719 21.488281-48 48-48 26.507813 0 48 21.488281 48 48-.027344 26.5-21.503906 47.972656-48 48zm352 176c-26.511719 0-48-21.492188-48-48 0-26.511719 21.488281-48 48-48 26.507813 0 48 21.488281 48 48-.027344 26.5-21.503906 47.972656-48 48zm0 0" fill="#1a6fb0"/></svg>