<svg height="482pt" viewBox="0 0 482.188 482" width="482pt" xmlns="http://www.w3.org/2000/svg"><path d="M472.047 65.559c0 30.925-25.074 56-56 56-30.93 0-56-25.075-56-56 0-30.93 25.07-56 56-56 30.926 0 56 25.07 56 56zm0 0M472.047 417.559c0 30.925-25.074 56-56 56-30.93 0-56-25.075-56-56 0-30.93 25.07-56 56-56 30.926 0 56 25.07 56 56zm0 0" fill="#78b9eb"/><path d="M416.047 353.559a64.004 64.004 0 00-54.723 30.976l-237.176-121.2a62.819 62.819 0 00.211-42.983l238.504-119.258c18.98 28.668 56.989 37.617 86.77 20.437 29.781-17.183 41.058-54.566 25.742-85.347-15.313-30.786-51.93-44.34-83.598-30.954-31.668 13.391-47.457 49.102-36.043 81.536L117.23 206.023c-15.625-23.406-44.699-33.859-71.648-25.761C18.632 188.359.137 213.109 0 241.246c-.133 28.14 18.125 53.067 44.996 61.422 26.867 8.355 56.043-1.816 71.89-25.07l237.887 121.558c-7.933 26.434 1.97 54.973 24.567 70.813 22.597 15.836 52.805 15.406 74.941-1.07 22.137-16.473 31.223-45.286 22.54-71.481-8.684-26.191-33.18-43.871-60.774-43.86zm0-336c26.508 0 48 21.488 48 48 0 26.507-21.492 48-48 48-26.512 0-48-21.493-48-48 .023-26.5 21.5-47.973 48-48zm-352 272c-26.512 0-48-21.493-48-48 0-26.512 21.488-48 48-48 26.508 0 48 21.488 48 48-.027 26.5-21.504 47.972-48 48zm352 176c-26.512 0-48-21.493-48-48 0-26.512 21.488-48 48-48 26.508 0 48 21.488 48 48-.027 26.5-21.504 47.972-48 48zm0 0" fill="#1a6fb0"/></svg>