<svg height="489pt" viewBox="0 -4 489.248 489" width="489pt" xmlns="http://www.w3.org/2000/svg"><g fill="#78b9eb"><path d="m412.625 198.84375c-6.359375-1.382812-12.851562-2.082031-19.359375-2.078125-8.328125 0-16.617187 1.128906-24.640625 3.359375-16.8125 4.597656-31.878906 14.09375-43.28125 27.277344-5.414062 6.207031-9.863281 13.191406-13.199219 20.722656-3.371093 7.617188-5.53125 15.714844-6.402343 24-.320313 2.867188-.480469 5.753906-.476563 8.640625.011719 5.15625.523437 10.296875 1.519531 15.359375 1.441406 7.253906 3.863282 14.277344 7.199219 20.878906h-.160156l-19.039063 28.558594-3.441406 5.203125 9.28125 9.359375v41.839844c-.007812 3.757812 1.480469 7.363281 4.140625 10.019531 2.65625 2.65625 6.261719 4.144531 10.019531 4.140625h50.640625l5.199219 16 13.039062 40h78.878907l-13.679688-60.640625 26.640625-100.878906h-.078125c3.820313-9.488281 5.800781-19.613281 5.839844-29.839844-.675781-40.085937-29.292969-74.242187-68.640625-81.921875zm0 0"/><path d="m364.625 72.125h48l-64-64v48c.023438 8.824219 7.171875 15.972656 16 16zm0 0"/><path d="m124.625 40.125h176c8.835938 0 16 7.164062 16 16v56c0 8.835938-7.164062 16-16 16h-176c-8.835938 0-16-7.164062-16-16v-56c0-8.835938 7.164062-16 16-16zm0 0"/><path d="m13.742188 310.605469 26.640624 100.878906-13.679687 60.640625h78.882813l13.039062-40 5.199219-16h50.640625c3.757812.003906 7.363281-1.484375 10.019531-4.140625s4.144531-6.261719 4.140625-10.019531v-41.839844l9.277344-9.359375-3.4375-5.203125-19.039063-28.558594h-.160156c3.332031-6.601562 5.753906-13.625 7.199219-20.878906.996094-5.0625 1.503906-10.203125 1.519531-15.359375.003906-2.886719-.15625-5.773437-.480469-8.640625-.804687-7.855469-2.800781-15.546875-5.917968-22.800781-3.929688-9.277344-9.515626-17.761719-16.480469-25.039063-10.171875-10.648437-22.851563-18.570312-36.882813-23.042968-15.371094-5.003907-31.800781-5.832032-47.597656-2.398438-39.351562 7.679688-67.96875 41.835938-68.640625 81.921875.035156 10.226563 2.015625 20.351563 5.839844 29.839844zm0 0"/></g><path d="m420.625 192.652344v-120.527344h-.074219c.019531-2.113281-.796875-4.144531-2.269531-5.65625l-64-64c-1.507812-1.480469-3.542969-2.300781-5.65625-2.273438v-.070312h-256c-13.253906 0-24 10.746094-24 24v168.527344c-39.988281 10.765625-67.992188 46.730468-68.625 88.136718.0195312 10.808594 2.027344 21.523438 5.921875 31.605469l.0625.257813 26.199219 98.953125-13.320313 58.75c-.535156 2.371093.035157 4.859375 1.550781 6.761719 1.519532 1.898437 3.816407 3.007812 6.25 3.007812h78.945313c3.464844 0 6.535156-2.234375 7.605469-5.527344l11.191406-34.472656h240.433594l11.199218 34.472656c1.070313 3.292969 4.144532 5.527344 7.609376 5.527344h78.945312c2.429688 0 4.730469-1.109375 6.246094-3.007812 1.519531-1.902344 2.089844-4.390626 1.550781-6.761719l-13.320313-58.75 26.195313-98.953125.0625-.257813c3.894531-10.082031 5.902344-20.796875 5.917969-31.605469-.632813-41.40625-28.636719-77.371093-68.621094-88.136718zm-64-165.214844 36.6875 36.6875h-28.6875c-4.417969 0-8-3.582031-8-8zm-272-3.3125c0-4.417969 3.582031-8 8-8h248v40c0 13.253906 10.746094 24 24 24h40v109.375c-3.773438-.453125-7.570312-.691406-11.367188-.710938-8.519531.023438-17 1.144532-25.234374 3.335938h-243.398438v.847656c-9.289062-2.78125-18.9375-4.191406-28.632812-4.183594-3.800782.019532-7.59375.257813-11.367188.710938zm208 360h-96v-8h96zm-89.058594-27.695312c1.140625-1.179688 1.882813-2.683594 2.128906-4.304688h77.855469c.246094 1.621094.992188 3.125 2.128907 4.304688l3.671874 3.695312h-89.457031zm87.945313-20.304688h-93.777344l-5.320313-8h104.417969zm11.671875-24h-117.121094c1.019531-2.640625 1.898438-5.308594 2.640625-8h111.839844c.742187 2.699219 1.621093 5.363281 2.640625 8zm-5.550782-24h-106.015624c.199218-2.402344.375-4.871094.375-7.335938 0-.226562 0-.441406 0-.664062h105.296874v.664062c-.03125 2.464844.136719 4.933594.34375 7.335938zm1.277344-24h-108.574218c-.527344-2.714844-1.191407-5.378906-1.953126-8h112.480469c-.757812 2.621094-1.421875 5.285156-1.953125 8zm8.363282-24h-125.296876c-1.417968-2.746094-2.976562-5.414062-4.664062-8h134.625c-1.691406 2.585938-3.246094 5.253906-4.664062 8zm-142.648438-24v.464844c-3.128906-3.046875-6.460938-5.875-9.976562-8.464844h179.953124c-3.515624 2.589844-6.851562 5.417969-9.976562 8.464844v-.464844zm-64.800781 248h-63.144531l11.542968-50.898438c.28125-1.257812.257813-2.566406-.070312-3.816406l-26.382813-99.6875c-.085937-.714844-.257812-1.414062-.523437-2.085937-3.441406-8.539063-5.222656-17.65625-5.246094-26.863281 1.183594-43.046876 36.953125-77.027344 80-76 43.046875-1.027344 78.816406 32.953124 80 76-.011719 11.339843-2.699219 22.519531-7.839844 32.628906-1.207031 2.445312-1.085937 5.339844.320313 7.671875.214843.355469.457031.695312.71875 1.019531l18.402343 27.679688-4.664062 4.695312c-1.488281 1.503906-2.320312 3.539062-2.3125 5.65625v41.839844c0 3.402344-2.757812 6.160156-6.160156 6.160156h-50.640625c-3.464844 0-6.539063 2.230469-7.609375 5.527344zm74.671875-40c12.222656-.027344 22.117187-9.9375 22.128906-22.160156v-1.839844h96v1.839844c.007812 12.234375 9.925781 22.148437 22.160156 22.160156zm293.503906-116.472656c-.261719.671875-.4375 1.371094-.519531 2.085937l-26.402344 99.671875c-.324219 1.25-.351563 2.558594-.070313 3.816406l11.558594 50.898438h-63.140625l-16.386719-50.472656c-1.066406-3.285156-4.121093-5.515625-7.574218-5.527344h-50.679688c-3.402344 0-6.160156-2.757812-6.160156-6.160156v-41.839844c-.011719-2.101562-.84375-4.109375-2.320312-5.601562l-4.664063-4.695313 18.222656-27.390625c.367188-.402344.6875-.839844.960938-1.304688 1.390625-2.34375 1.496093-5.234374.273437-7.671874-5.144531-10.109376-7.828125-21.289063-7.839844-32.632813.589844-34.128906 23.664063-63.761719 56.605469-72.703125h2.761719v-.679688c6.738281-1.742187 13.671875-2.632812 20.632812-2.65625 43.046876-1.027343 78.816407 32.957032 80 76-.027343 9.207032-1.8125 18.324219-5.257812 26.863282zm0 0" fill="#1a6fb0"/><path d="m124.625 136.125h176c13.253906 0 24-10.746094 24-24v-56c0-13.253906-10.746094-24-24-24h-176c-13.253906 0-24 10.746094-24 24v56c0 13.253906 10.746094 24 24 24zm-8-80c0-4.417969 3.582031-8 8-8h176c4.417969 0 8 3.582031 8 8v56c0 4.417969-3.582031 8-8 8h-176c-4.417969 0-8-3.582031-8-8zm0 0" fill="#1a6fb0"/><path d="m100.625 144.125h280v16h-280zm0 0" fill="#1a6fb0"/><path d="m100.625 168.125h280v16h-280zm0 0" fill="#1a6fb0"/></svg>