<svg height="652" viewBox="0 -4 489.248 489" width="652" xmlns="http://www.w3.org/2000/svg"><g fill="#78b9eb"><path d="M412.625 198.844a90.871 90.871 0 00-19.36-2.078 91.996 91.996 0 00-24.64 3.359 87.872 87.872 0 00-43.281 27.277 82.119 82.119 0 00-13.2 20.723 79.963 79.963 0 00-6.402 24 76.915 76.915 0 00-.476 8.64 80.49 80.49 0 001.52 15.36 81.519 81.519 0 007.198 20.879h-.16l-19.039 28.559-3.441 5.203 9.281 9.359v41.84a14.115 14.115 0 004.14 10.02 14.147 14.147 0 0010.02 4.14h50.64l5.2 16 13.04 40h78.878l-13.68-60.64 26.64-100.88h-.077a80.712 80.712 0 005.84-29.84c-.676-40.085-29.293-74.242-68.641-81.921zm0 0M364.625 72.125h48l-64-64v48c.023 8.824 7.172 15.973 16 16zm0 0M124.625 40.125h176c8.836 0 16 7.164 16 16v56c0 8.836-7.164 16-16 16h-176c-8.836 0-16-7.164-16-16v-56c0-8.836 7.164-16 16-16zm0 0M13.742 310.605l26.64 100.88-13.679 60.64h78.883l13.039-40 5.2-16h50.64c3.758.004 7.363-1.484 10.02-4.14s4.144-6.262 4.14-10.02v-41.84l9.277-9.36-3.437-5.202-19.04-28.56h-.16a81.817 81.817 0 007.2-20.878 80.806 80.806 0 001.52-15.36 76.008 76.008 0 00-.481-8.64 77.857 77.857 0 00-5.918-22.8 83.084 83.084 0 00-16.48-25.04 87.934 87.934 0 00-36.883-23.043 91.2 91.2 0 00-47.598-2.398c-39.352 7.68-67.969 41.836-68.64 81.922a80.555 80.555 0 005.84 29.84zm0 0"/></g><path d="M420.625 192.652V72.125h-.074a7.997 7.997 0 00-2.27-5.656l-64-64a7.928 7.928 0 00-5.656-2.274v-.07h-256c-13.254 0-24 10.746-24 24v168.527C28.637 203.418.633 239.382 0 280.79a88.16 88.16 0 005.922 31.606l.062.257 26.2 98.953-13.32 58.75a8.02 8.02 0 001.55 6.762 8.006 8.006 0 006.25 3.008h78.945a8 8 0 007.606-5.527l11.191-34.473H364.84l11.2 34.473a8.005 8.005 0 007.608 5.527h78.946a7.998 7.998 0 007.797-9.77l-13.32-58.75 26.195-98.953.062-.257a88.072 88.072 0 005.918-31.606c-.633-41.406-28.637-77.371-68.621-88.137zm-64-165.214l36.688 36.687h-28.688a8 8 0 01-8-8zm-272-3.313a8 8 0 018-8h248v40c0 13.254 10.746 24 24 24h40V189.5a99.663 99.663 0 00-11.367-.71c-8.52.023-17 1.144-25.235 3.335H124.625v.848a99.558 99.558 0 00-28.633-4.184c-3.8.02-7.594.258-11.367.711zm208 360h-96v-8h96zm-89.059-27.695a7.894 7.894 0 002.13-4.305h77.855a7.92 7.92 0 002.129 4.305l3.672 3.695h-89.457zm87.946-20.305h-93.778l-5.32-8h104.418zm11.672-24H186.062a84.76 84.76 0 002.641-8h111.84a83.66 83.66 0 002.64 8zm-5.551-24H191.617c.2-2.402.375-4.871.375-7.336v-.664H297.29v.664c-.031 2.465.137 4.934.344 7.336zm1.277-24H190.336a90.493 90.493 0 00-1.953-8h112.48a93.325 93.325 0 00-1.953 8zm8.363-24H181.977a91.233 91.233 0 00-4.665-8h134.625a90.263 90.263 0 00-4.664 8zm-142.648-24v.465a95.424 95.424 0 00-9.977-8.465h179.954a95.023 95.023 0 00-9.977 8.465v-.465zm-64.8 248H36.68l11.543-50.898a8.084 8.084 0 00-.07-3.817L21.77 309.723a8.38 8.38 0 00-.524-2.086A72.357 72.357 0 0116 280.773c1.184-43.046 36.953-77.027 80-76 43.047-1.027 78.816 32.954 80 76a72.157 72.157 0 01-7.84 32.63 8.004 8.004 0 00.32 7.671c.215.356.458.696.72 1.02l18.402 27.68-4.665 4.695a8.001 8.001 0 00-2.312 5.656v41.84a6.16 6.16 0 01-6.16 6.16h-50.64a8 8 0 00-7.61 5.527zm74.671-40c12.223-.027 22.117-9.938 22.129-22.16v-1.84h96v1.84c.008 12.234 9.926 22.148 22.16 22.16zM468 307.652a8.372 8.372 0 00-.52 2.086l-26.402 99.672a8.134 8.134 0 00-.07 3.817l11.558 50.898h-63.14l-16.387-50.473a7.994 7.994 0 00-7.574-5.527h-50.68a6.16 6.16 0 01-6.16-6.16v-41.84a8.021 8.021 0 00-2.32-5.602l-4.664-4.695 18.222-27.39c.367-.403.688-.84.961-1.305a8.003 8.003 0 00.274-7.672 72.11 72.11 0 01-7.84-32.633c.59-34.129 23.664-63.762 56.605-72.703h2.762v-.68a83.56 83.56 0 0120.633-2.656c43.047-1.027 78.816 32.957 80 76A72.369 72.369 0 01468 307.652zm0 0" fill="#1a6fb0"/><path d="M124.625 136.125h176c13.254 0 24-10.746 24-24v-56c0-13.254-10.746-24-24-24h-176c-13.254 0-24 10.746-24 24v56c0 13.254 10.746 24 24 24zm-8-80a8 8 0 018-8h176a8 8 0 018 8v56a8 8 0 01-8 8h-176a8 8 0 01-8-8zm0 0M100.625 144.125h280v16h-280zm0 0M100.625 168.125h280v16h-280zm0 0" fill="#1a6fb0"/></svg>