<svg height="480pt" viewBox="0 -24 480 480" width="480pt" xmlns="http://www.w3.org/2000/svg"><path d="m272 272h48l-80-80-80 80h48v99.902344l-10.960938-4.351563c-21.386718-8.867187-40.261718-22.863281-54.960937-40.75-11.785156 6.039063-24.835937 9.191407-38.078125 9.199219-52.9375 0-96-50.238281-96-112s43.0625-112 96-112c1.414062 0 2.800781.113281 4.199219.230469l2.023437.175781c23.761719-63.429688 74.730469-104.40625 129.777344-104.40625s106.015625 40.976562 129.839844 104.398438l1.710937-.140626c1.648438-.144531 3.035157-.257812 4.449219-.257812 52.9375 0 96 50.238281 96 112s-43.0625 112-96 112c-13.242188-.007812-26.292969-3.160156-38.078125-9.199219-14.699219 17.886719-33.574219 31.882813-54.960937 40.75l-10.960938 4.351563zm0 0" fill="#78b9eb"/><path d="m376 104h-.855469c-25.863281-63.375-78.34375-104-135.144531-104s-109.28125 40.625-135.144531 104h-.855469c-57.34375 0-104 53.832031-104 120s46.65625 120 104 120c12.378906.003906 24.628906-2.519531 36-7.414062 16.222656 18.40625 36.875 32.367187 60 40.558593v46.855469c0 4.417969 3.582031 8 8 8h64c4.417969 0 8-3.582031 8-8v-46.855469c23.125-8.191406 43.777344-22.152343 60-40.558593 11.371094 4.894531 23.621094 7.417968 36 7.414062 57.34375 0 104-53.832031 104-120s-46.65625-120-104-120zm-112 168v144h-48v-144c0-4.417969-3.582031-8-8-8h-28.6875l60.6875-60.6875 60.6875 60.6875h-28.6875c-4.417969 0-8 3.582031-8 8zm112 56c-11.984375-.011719-23.796875-2.867188-34.464844-8.335938-3.3125-1.679687-7.34375-.855468-9.734375 1.984376-13.828125 16.898437-31.625 30.117187-51.800781 38.472656v-80.121094h40c3.234375 0 6.152344-1.949219 7.390625-4.9375s.550781-6.429688-1.734375-8.71875l-80-80c-3.125-3.121094-8.1875-3.121094-11.3125 0l-80 80c-2.285156 2.289062-2.972656 5.730469-1.734375 8.71875s4.15625 4.9375 7.390625 4.9375h40v80.121094c-20.175781-8.355469-37.972656-21.574219-51.800781-38.472656-2.390625-2.839844-6.421875-3.664063-9.734375-1.984376-10.667969 5.46875-22.480469 8.324219-34.464844 8.335938-48.519531 0-88-46.65625-88-104s39.480469-104 88-104c1.28125 0 2.519531.121094 3.785156.222656l1.773438.152344c3.542968.25 6.828125-1.847656 8.089844-5.167969 22.640624-60.261719 70.671874-99.207031 122.351562-99.207031s99.710938 38.945312 122.351562 99.199219c1.25 3.328125 4.542969 5.433593 8.089844 5.167969l1.773438-.152344c1.265625-.101563 2.503906-.222656 3.785156-.222656 48.519531 0 88 46.65625 88 104s-39.480469 104.007812-88 104.007812zm0 0" fill="#1a6fb0"/></svg>