<svg height="640" viewBox="0 -24 480 480" width="640" xmlns="http://www.w3.org/2000/svg"><path d="M272 272h48l-80-80-80 80h48v99.902l-10.96-4.351a141.078 141.078 0 01-54.962-40.75A83.604 83.604 0 01104 336c-52.938 0-96-50.238-96-112s43.063-112 96-112c1.414 0 2.8.113 4.2.23l2.023.176C133.984 48.976 184.953 8 240 8s106.016 40.977 129.84 104.398l1.71-.14c1.65-.145 3.036-.258 4.45-.258 52.938 0 96 50.238 96 112s-43.063 112-96 112a83.604 83.604 0 01-38.078-9.2 141.078 141.078 0 01-54.961 40.75L272 371.903zm0 0" fill="#78b9eb"/><path d="M376 104h-.855C349.28 40.625 296.8 0 240 0S130.719 40.625 104.855 104H104C46.656 104 0 157.832 0 224s46.656 120 104 120a90.984 90.984 0 0036-7.414 144.127 144.127 0 0060 40.559V424a8 8 0 008 8h64a8 8 0 008-8v-46.855a144.127 144.127 0 0060-40.56A90.984 90.984 0 00376 344c57.344 0 104-53.832 104-120s-46.656-120-104-120zM264 272v144h-48V272a8 8 0 00-8-8h-28.688L240 203.312 300.688 264H272a8 8 0 00-8 8zm112 56a75.712 75.712 0 01-34.465-8.336 7.997 7.997 0 00-9.734 1.984A132.392 132.392 0 01280 360.121V280h40c3.234 0 6.152-1.95 7.39-4.938s.551-6.43-1.734-8.718l-80-80a8.004 8.004 0 00-11.312 0l-80 80A8 8 0 00160 280h40v80.121a132.392 132.392 0 01-51.8-38.473 7.997 7.997 0 00-9.735-1.984A75.712 75.712 0 01104 328c-48.52 0-88-46.656-88-104s39.48-104 88-104c1.281 0 2.52.121 3.785.223l1.774.152a8.045 8.045 0 008.09-5.168C140.288 54.945 188.32 16 240 16s99.71 38.945 122.352 99.2a8.002 8.002 0 008.09 5.167l1.773-.152c1.265-.102 2.504-.223 3.785-.223 48.52 0 88 46.656 88 104S424.52 328 376 328zm0 0" fill="#1a6fb0"/></svg>