<!--?xml version="1.0" standalone="no"?-->

<svg version="1.0" xmlns="http://www.w3.org/2000/svg" width="300.000000pt" height="265.000000pt" viewBox="0 0 300.000000 265.000000" preserveAspectRatio="xMidYMid meet">
<g transform="translate(0.000000,265.000000) scale(0.100000,-0.100000)" fill="#B20C08" stroke="none">
<path stroke-width="20" class="node" id="node1" d="M1442 2638 c-17 -6 -48 -25 -67 -42 -32 -29 -60 -75 -252 -409 -86
-150 -164 -286 -373 -647 -84 -146 -185 -321 -225 -390 -40 -69 -114 -197
-165 -285 -258 -447 -350 -612 -356 -641 -14 -75 39 -164 121 -203 l45 -21
1329 0 c1292 0 1330 1 1372 19 56 25 92 64 114 124 15 41 16 54 6 90 -14 45
-19 54 -136 257 -43 74 -86 149 -95 165 -35 61 -313 541 -330 570 -9 17 -111
192 -225 390 -114 198 -235 407 -267 465 -33 58 -70 121 -82 140 -13 19 -58
98 -101 175 -102 182 -118 203 -179 231 -55 26 -82 28 -134 12z m125 -110 c12
-13 55 -81 96 -153 41 -71 100 -175 132 -230 32 -55 115 -199 185 -320 69
-121 305 -529 523 -907 435 -752 423 -728 368 -790 l-29 -33 -1304 -3 c-717
-2 -1322 0 -1345 3 -58 8 -93 45 -93 98 0 30 14 64 58 141 32 56 94 162 137
236 43 74 110 191 150 260 103 179 256 445 340 590 85 148 200 346 300 520
255 442 329 568 348 588 15 17 32 22 67 22 35 0 51 -5 67 -22z"></path>
<path class="node" id="node2" d="M1463 1968 c-29 -6 -52 -21 -77 -48 -57 -63 -57 -6 -1 -645 14 -159
32 -355 38 -434 12 -137 14 -145 41 -167 34 -30 48 -30 82 -1 24 21 27 33 39
142 7 66 21 224 30 350 9 127 25 318 35 425 26 257 26 258 -11 313 -26 39 -39
49 -82 62 -28 8 -51 15 -51 14 -1 -1 -20 -5 -43 -11z"></path>
<path class="node" id="node3" d="M1448 514 c-53 -28 -73 -101 -42 -154 77 -129 268 -23 199 110 -28
54 -101 75 -157 44z"></path>
</g>
<g transform="translate(0.000000,265.000000) scale(0.100000,-0.100000)" fill="#FEEC02" stroke="none">


<path class="node" id="node6" d="M1433 2528 c-19 -20 -93 -146 -348 -588 -100 -174 -215 -372 -300
-520 -84 -145 -237 -411 -340 -590 -40 -69 -107 -186 -150 -260 -43 -74 -105
-180 -137 -236 -44 -77 -58 -111 -58 -141 0 -53 35 -90 93 -98 23 -3 628 -5
1345 -3 l1304 3 29 33 c55 62 67 38 -368 790 -218 378 -454 786 -523 907 -70
121 -153 265 -185 320 -32 55 -91 159 -132 230 -96 166 -104 175 -163 175 -35
0 -52 -5 -67 -22z m124 -563 c43 -13 56 -23 82 -62 37 -55 37 -56 11 -313 -10
-107 -26 -298 -35 -425 -9 -126 -23 -284 -30 -350 -12 -109 -15 -121 -39 -142
-34 -29 -48 -29 -82 1 -27 22 -29 30 -41 167 -6 79 -24 275 -38 434 -45 515
-47 554 -41 580 11 44 73 103 119 113 23 6 42 10 43 11 0 1 23 -6 51 -14z m3
-1450 c34 -18 60 -62 60 -102 -1 -84 -98 -139 -170 -97 -129 77 -24 268 110
199z"></path>

<path class="node" id="node8" d="M1150 2250 c-11 -22 -18 -40 -15 -40 2 0 14 18 25 40 11 22 18 40 15
40 -2 0 -14 -18 -25 -40z"></path>

















<path class="node" id="node26" d="M25 299 c-9 -17 -15 -33 -13 -35 3 -2 12 12 21 31 21 43 13 47 -8 4z"></path>

<path class="node" id="node28" d="M1 154 c0 -11 3 -14 6 -6 3 7 2 16 -1 19 -3 4 -6 -2 -5 -13z"></path>


</g>
<g transform="translate(0.000000,265.000000) scale(0.100000,-0.100000)" fill="#FFFFFF" stroke="none">


<path class="node" id="node33" d="M0 73 l0 -73 73 0 c71 1 71 1 39 15 -38 17 -80 59 -98 100 -13 28
-13 26 -14 -42z"></path>
<path class="node" id="node34" d="M2990 128 c0 -26 -54 -88 -93 -107 l-42 -21 73 0 72 0 0 70 c0 39 -2
70 -5 70 -3 0 -5 -5 -5 -12z"></path>
</g>
</svg>