<svg version="1.0" xmlns="http://www.w3.org/2000/svg" width="400" height="353.333" viewBox="0 0 300 265"><g fill="#B20C08"><path class="node" d="M144.2 1.2c-1.7.6-4.8 2.5-6.7 4.2-3.2 2.9-6 7.5-25.2 40.9-8.6 15-16.4 28.6-37.3 64.7-8.4 14.6-18.5 32.1-22.5 39-4 6.9-11.4 19.7-16.5 28.5C10.2 223.2 1 239.7.4 242.6c-1.4 7.5 3.9 16.4 12.1 20.3L17 265h132.9c129.2 0 133-.1 137.2-1.9 5.6-2.5 9.2-6.4 11.4-12.4 1.5-4.1 1.6-5.4.6-9-1.4-4.5-1.9-5.4-13.6-25.7-4.3-7.4-8.6-14.9-9.5-16.5-3.5-6.1-31.3-54.1-33-57-.9-1.7-11.1-19.2-22.5-39S197 62.8 193.8 57c-3.3-5.8-7-12.1-8.2-14-1.3-1.9-5.8-9.8-10.1-17.5-10.2-18.2-11.8-20.3-17.9-23.1-5.5-2.6-8.2-2.8-13.4-1.2zm12.5 11c1.2 1.3 5.5 8.1 9.6 15.3 4.1 7.1 10 17.5 13.2 23 3.2 5.5 11.5 19.9 18.5 32 6.9 12.1 30.5 52.9 52.3 90.7 43.5 75.2 42.3 72.8 36.8 79l-2.9 3.3-130.4.3c-71.7.2-132.2 0-134.5-.3-5.8-.8-9.3-4.5-9.3-9.8 0-3 1.4-6.4 5.8-14.1 3.2-5.6 9.4-16.2 13.7-23.6 4.3-7.4 11-19.1 15-26 10.3-17.9 25.6-44.5 34-59 8.5-14.8 20-34.6 30-52 25.5-44.2 32.9-56.8 34.8-58.8 1.5-1.7 3.2-2.2 6.7-2.2s5.1.5 6.7 2.2z"/><path class="node" d="M146.3 68.2c-2.9.6-5.2 2.1-7.7 4.8-5.7 6.3-5.7.6-.1 64.5 1.4 15.9 3.2 35.5 3.8 43.4 1.2 13.7 1.4 14.5 4.1 16.7 3.4 3 4.8 3 8.2.1 2.4-2.1 2.7-3.3 3.9-14.2.7-6.6 2.1-22.4 3-35 .9-12.7 2.5-31.8 3.5-42.5 2.6-25.7 2.6-25.8-1.1-31.3-2.6-3.9-3.9-4.9-8.2-6.2-2.8-.8-5.1-1.5-5.1-1.4-.1.1-2 .5-4.3 1.1zM144.8 213.6c-5.3 2.8-7.3 10.1-4.2 15.4 7.7 12.9 26.8 2.3 19.9-11-2.8-5.4-10.1-7.5-15.7-4.4z"/></g><g fill="#FEEC02"><path class="node" d="M143.3 12.2c-1.9 2-9.3 14.6-34.8 58.8-10 17.4-21.5 37.2-30 52-8.4 14.5-23.7 41.1-34 59-4 6.9-10.7 18.6-15 26-4.3 7.4-10.5 18-13.7 23.6-4.4 7.7-5.8 11.1-5.8 14.1 0 5.3 3.5 9 9.3 9.8 2.3.3 62.8.5 134.5.3l130.4-.3 2.9-3.3c5.5-6.2 6.7-3.8-36.8-79-21.8-37.8-45.4-78.6-52.3-90.7-7-12.1-15.3-26.5-18.5-32-3.2-5.5-9.1-15.9-13.2-23C156.7 10.9 155.9 10 150 10c-3.5 0-5.2.5-6.7 2.2zm12.4 56.3c4.3 1.3 5.6 2.3 8.2 6.2 3.7 5.5 3.7 5.6 1.1 31.3-1 10.7-2.6 29.8-3.5 42.5-.9 12.6-2.3 28.4-3 35-1.2 10.9-1.5 12.1-3.9 14.2-3.4 2.9-4.8 2.9-8.2-.1-2.7-2.2-2.9-3-4.1-16.7-.6-7.9-2.4-27.5-3.8-43.4-4.5-51.5-4.7-55.4-4.1-58 1.1-4.4 7.3-10.3 11.9-11.3 2.3-.6 4.2-1 4.3-1.1 0-.1 2.3.6 5.1 1.4zm.3 145c3.4 1.8 6 6.2 6 10.2-.1 8.4-9.8 13.9-17 9.7-12.9-7.7-2.4-26.8 11-19.9zM115 40c-1.1 2.2-1.8 4-1.5 4 .2 0 1.4-1.8 2.5-4s1.8-4 1.5-4c-.2 0-1.4 1.8-2.5 4zM2.5 235.1c-.9 1.7-1.5 3.3-1.3 3.5.3.2 1.2-1.2 2.1-3.1 2.1-4.3 1.3-4.7-.8-.4zM.1 249.6c0 1.1.3 1.4.6.6.3-.7.2-1.6-.1-1.9-.3-.4-.6.2-.5 1.3z"/></g><g fill="#FFF"><path class="node" d="M0 257.7v7.3h7.3c7.1-.1 7.1-.1 3.9-1.5-3.8-1.7-8-5.9-9.8-10-1.3-2.8-1.3-2.6-1.4 4.2zM299 252.2c0 2.6-5.4 8.8-9.3 10.7l-4.2 2.1H300v-7c0-3.9-.2-7-.5-7s-.5.5-.5 1.2z"/></g></svg>