<svg height="640" viewBox="0 0 480 480" width="640" xmlns="http://www.w3.org/2000/svg"><path d="M469.68 53.04l-15.84-2a48.509 48.509 0 00-1.918-4.642l9.758-12.558a2.701 2.701 0 00-.239-3.602l-11.68-11.68a2.701 2.701 0 00-3.6-.238l-12.56 9.758a48.509 48.509 0 00-4.64-1.918l-2-15.84A2.68 2.68 0 00424.32 8H407.68a2.68 2.68 0 00-2.64 2.32l-2 15.84a48.509 48.509 0 00-4.642 1.918L385.84 18.32a2.701 2.701 0 00-3.602.239l-11.68 11.68a2.701 2.701 0 00-.238 3.6l9.758 12.56a48.509 48.509 0 00-1.918 4.64l-15.84 2a2.68 2.68 0 00-2.32 2.64V72.32a2.68 2.68 0 002.32 2.64l15.84 2a48.509 48.509 0 001.918 4.642L370.32 94.16a2.701 2.701 0 00.239 3.602l11.68 11.68a2.701 2.701 0 003.6.238l12.56-9.758a48.509 48.509 0 004.64 1.918l2 15.84a2.68 2.68 0 002.64 2.32h16.641a2.68 2.68 0 002.64-2.32l2-15.84a48.509 48.509 0 004.642-1.918l12.558 9.758a2.701 2.701 0 003.602-.239l11.68-11.68a2.701 2.701 0 00.238-3.6l-9.758-12.56a48.509 48.509 0 001.918-4.64l15.84-2a2.68 2.68 0 002.32-2.64V55.68a2.68 2.68 0 00-2.32-2.64zM416 80c-8.836 0-16-7.164-16-16s7.164-16 16-16 16 7.164 16 16c-.027 8.824-7.176 15.973-16 16zm0 0" fill="#78b9eb"/><path d="M310.238 145.36l-8.718-11.2a54.19 54.19 0 003.28-8l27.2-3.36a4.58 4.58 0 004-4.562V89.762a4.58 4.58 0 00-4-4.563l-27.2-3.36a54.19 54.19 0 00-3.28-8l16.8-21.6a4.545 4.545 0 00-.398-6.079L297.84 26.078a4.545 4.545 0 00-6.078-.398l-21.602 16.8a54.19 54.19 0 00-8-3.28L258.8 12a4.58 4.58 0 00-4.562-4h-28.476a4.58 4.58 0 00-4.563 4l-3.36 27.2a54.19 54.19 0 00-8 3.28l-21.6-16.8a4.545 4.545 0 00-6.079.398L162.078 46.16a4.545 4.545 0 00-.398 6.078l16.8 21.602a54.19 54.19 0 00-3.28 8L148 85.2a4.58 4.58 0 00-4 4.562v28.476a4.58 4.58 0 004 4.563l27.2 3.36a54.19 54.19 0 003.28 8l-8.718 11.198L168 144H56v24h112l.16-.078 14 14a4.545 4.545 0 006.078.398l21.602-16.8a54.19 54.19 0 008 3.28l3.36 27.2a4.58 4.58 0 004.562 4h28.476a4.58 4.58 0 004.563-4l3.36-27.2a54.19 54.19 0 008-3.28l21.6 16.8a4.545 4.545 0 006.079-.398l14.082-14L312 168h112v-24H312zM240 144c-22.09 0-40-17.91-40-40s17.91-40 40-40 40 17.91 40 40-17.91 40-40 40zm0 0" fill="#78b9eb"/><path d="M74.96 117.68l2-15.84a48.509 48.509 0 004.642-1.918l12.558 9.758a2.701 2.701 0 003.602-.239l11.68-11.68a2.701 2.701 0 00.238-3.6L99.922 81.6a48.509 48.509 0 001.918-4.64l15.84-2a2.68 2.68 0 002.32-2.64V55.68a2.68 2.68 0 00-2.32-2.64l-15.84-2a48.509 48.509 0 00-1.918-4.642l9.758-12.558a2.701 2.701 0 00-.239-3.602l-11.68-11.68a2.701 2.701 0 00-3.6-.238L81.6 28.078a48.509 48.509 0 00-4.64-1.918l-2-15.84A2.68 2.68 0 0072.32 8H55.68a2.68 2.68 0 00-2.64 2.32l-2 15.84a48.509 48.509 0 00-4.642 1.918L33.84 18.32a2.701 2.701 0 00-3.602.239l-11.68 11.68a2.701 2.701 0 00-.238 3.6l9.758 12.56a48.509 48.509 0 00-1.918 4.64l-15.84 2A2.68 2.68 0 008 55.68V72.32a2.68 2.68 0 002.32 2.64l15.84 2a48.509 48.509 0 001.918 4.642L18.32 94.16a2.701 2.701 0 00.239 3.602l11.68 11.68a2.701 2.701 0 003.6.238l12.56-9.758a48.509 48.509 0 004.64 1.918l2 15.84a2.68 2.68 0 002.64 2.32H72.32a2.68 2.68 0 002.64-2.32zM48 64c0-8.836 7.164-16 16-16s16 7.164 16 16-7.164 16-16 16c-8.824-.027-15.973-7.176-16-16zm0 0M112 344h64c8.836 0 16 7.164 16 16v64c0 8.836-7.164 16-16 16h-64c-8.836 0-16-7.164-16-16v-64c0-8.836 7.164-16 16-16zm0 0M112 208h64c8.836 0 16 7.164 16 16v64c0 8.836-7.164 16-16 16h-64c-8.836 0-16-7.164-16-16v-64c0-8.836 7.164-16 16-16zm0 0" fill="#78b9eb"/><g fill="#1a6fb0"><path d="M176 200h-64c-13.254 0-24 10.746-24 24v64c0 13.254 10.746 24 24 24h64c13.254 0 24-10.746 24-24v-64c0-13.254-10.746-24-24-24zm8 88a8 8 0 01-8 8h-64a8 8 0 01-8-8v-64a8 8 0 018-8h64a8 8 0 018 8zm0 0M176 336h-64c-13.254 0-24 10.746-24 24v64c0 13.254 10.746 24 24 24h64c13.254 0 24-10.746 24-24v-64c0-13.254-10.746-24-24-24zm8 88a8 8 0 01-8 8h-64a8 8 0 01-8-8v-64a8 8 0 018-8h64a8 8 0 018 8zm0 0M216 224h32v16h-32zm0 0M216 248h16v16h-16zm0 0M240 264h88v-16h-88zm0 0M216 272v16h176v-16zm0 0M216 296h40v16h-40zm0 0M216 336v16h176v-16zm0 0M216 360h32v16h-32zm0 0M216 384h16v16h-16zm0 0M240 400h88v-16h-88zm0 0M216 408v16h176v-16zm0 0M216 432h40v16h-40zm0 0M264 432v16h88v-16zm0 0M312 200h80v16h-80zm0 0M344 240v-16h-88v16zm0 0M352 224h40v16h-40zm0 0M336 248h56v16h-56zm0 0M352 312v-16h-88v16zm0 0M360 296h32v16h-32zm0 0M344 376v-16h-88v16zm0 0M352 360h40v16h-40zm0 0M336 384h56v16h-56zm0 0M360 432h32v16h-32zm0 0M240 152c26.508 0 48-21.492 48-48s-21.492-48-48-48-48 21.492-48 48c.027 26.5 21.5 47.973 48 48zm0-80c17.672 0 32 14.328 32 32s-14.328 32-32 32-32-14.328-32-32 14.328-32 32-32zm0 0M470.68 45.105l-6.938-.875 4.297-5.52a10.71 10.71 0 00-.879-14.085l-11.777-11.754A10.677 10.677 0 00441.28 12l-5.52 4.297-.866-6.93A10.676 10.676 0 00424.313 0h-16.625a10.67 10.67 0 00-10.583 9.344l-.867 6.945-5.52-4.289a10.67 10.67 0 00-14.093.871l-11.77 11.762A10.709 10.709 0 00364 38.719l4.29 5.511-6.962.875A10.694 10.694 0 00352 55.687v16.625a10.692 10.692 0 009.344 10.583l6.937.875-4.297 5.52a10.71 10.71 0 00.88 14.085l11.753 11.754a10.686 10.686 0 0014.102.879l5.52-4.297.866 6.93c.665 5.34 5.2 9.351 10.583 9.359h16.625a10.67 10.67 0 0010.582-9.344l.867-6.945 5.52 4.297a10.662 10.662 0 0014.093-.871l11.77-11.77A10.709 10.709 0 00468 89.281l-4.29-5.511 6.962-.875A10.694 10.694 0 00480 72.313V55.686c-.012-5.367-4-9.894-9.32-10.582zM464 67.61L452.8 69a8.01 8.01 0 00-6.585 5.352 31.197 31.197 0 01-1.543 3.718 8.002 8.002 0 00.863 8.434l6.93 8.887-5.106 5.105-8.863-6.894a8.002 8.002 0 00-8.457-.86 29.852 29.852 0 01-3.687 1.54 8 8 0 00-5.352 6.581L419.602 112h-7.204L411 100.8a8.01 8.01 0 00-5.352-6.585 29.83 29.83 0 01-3.687-1.535 7.998 7.998 0 00-8.465.855l-8.887 6.93-5.105-5.106 6.93-8.886a8.002 8.002 0 00.863-8.434 31.468 31.468 0 01-1.543-3.719 7.997 7.997 0 00-6.586-5.351L368 67.609v-7.203l11.2-1.39a8.003 8.003 0 006.585-5.352c.434-1.27.95-2.512 1.543-3.719a7.998 7.998 0 00-.93-8.441l-6.925-8.895 5.101-5.105 8.89 6.93a8.006 8.006 0 008.466.855 29.24 29.24 0 013.687-1.535 8.01 8.01 0 005.352-6.586L412.399 16h7.203L421 27.2a8.01 8.01 0 005.352 6.585 29.83 29.83 0 013.687 1.535 8 8 0 008.457-.922l8.895-6.925 5.105 5.101-6.894 8.93a7.997 7.997 0 00-.868 8.426 31.882 31.882 0 011.547 3.718A8 8 0 00452.863 59l11.2 1.39zm0 0"/><path d="M416 40c-13.254 0-24 10.746-24 24s10.746 24 24 24 24-10.746 24-24-10.746-24-24-24zm0 32a8 8 0 110-16 8 8 0 010 16zm0 0M55.688 128h16.624a10.67 10.67 0 0010.583-9.344l.867-6.945 5.52 4.297a10.662 10.662 0 0014.093-.871l11.77-11.77A10.709 10.709 0 00116 89.281l-4.29-5.511 6.962-.875A10.694 10.694 0 00128 72.313V55.686a10.692 10.692 0 00-9.344-10.582l-6.937-.875 4.297-5.52a10.71 10.71 0 00-.88-14.085l-11.753-11.754a10.645 10.645 0 00-14.094-.879l-5.527 4.297-.867-6.93A10.678 10.678 0 0072.313 0H55.686a10.67 10.67 0 00-10.582 9.344l-.867 6.945L38.718 12a10.67 10.67 0 00-14.093.871l-11.77 11.762A10.709 10.709 0 0012 38.719l4.29 5.511-6.938.875A10.696 10.696 0 000 55.687v16.625a10.692 10.692 0 009.344 10.583l6.937.875-4.297 5.52a10.71 10.71 0 00.88 14.085l11.753 11.754a10.662 10.662 0 0014.094.879l5.527-4.297.867 6.93c.665 5.34 5.2 9.351 10.583 9.359zM41.495 93.602l-8.887 6.925-5.105-5.101 6.894-8.922a8.003 8.003 0 00.868-8.434 31.882 31.882 0 01-1.547-3.718A8 8 0 0027.137 69L16 67.61v-7.204l11.2-1.39a8.003 8.003 0 006.585-5.352c.434-1.27.95-2.512 1.543-3.719a7.998 7.998 0 00-.93-8.441l-6.894-8.895 5.105-5.105 8.887 6.894a8.007 8.007 0 008.465.86 29.852 29.852 0 013.687-1.54A7.993 7.993 0 0059 27.2L60.398 16h7.204L69 27.2a8.01 8.01 0 005.352 6.585 29.83 29.83 0 013.687 1.535 8 8 0 008.457-.922l8.895-6.925 5.105 5.101-6.894 8.93a7.997 7.997 0 00-.868 8.426 31.882 31.882 0 011.547 3.718A8 8 0 00100.863 59l11.2 1.39v7.204l-11.2 1.39a7.993 7.993 0 00-6.582 5.352 32.166 32.166 0 01-1.547 3.719 8.003 8.003 0 00.868 8.433l6.925 8.887-5.101 5.105-8.93-6.878a8.002 8.002 0 00-8.457-.86 29.852 29.852 0 01-3.687 1.54A8 8 0 0069 100.862L67.602 112h-7.204L59 100.8a8.01 8.01 0 00-5.352-6.585 29.83 29.83 0 01-3.687-1.535 7.997 7.997 0 00-8.465.922zm0 0"/><path d="M88 64c0-13.254-10.746-24-24-24S40 50.746 40 64s10.746 24 24 24 24-10.746 24-24zm-32 0a8 8 0 1116 0 8 8 0 01-16 0zm0 0M424 136H313.098l-1.977-2.535L333 130.727a12.605 12.605 0 0011-12.48V89.753a12.605 12.605 0 00-11-12.48l-21.871-2.739 13.535-17.39a12.61 12.61 0 00-1.039-16.61l-20.16-20.16c-4.492-4.469-11.606-4.91-16.61-1.023l-17.398 13.527-2.738-21.863A12.583 12.583 0 00254.246 0h-28.492a12.583 12.583 0 00-12.473 11.016l-2.738 21.863-17.398-13.535a12.637 12.637 0 00-16.61 1.039l-20.152 20.152a12.611 12.611 0 00-1.031 16.617l13.527 17.383L147 77.273a12.605 12.605 0 00-11 12.48v28.493a12.602 12.602 0 0011.008 12.48l21.87 2.739-1.976 2.535H56a8 8 0 00-8 8v312c0 13.254 10.746 24 24 24h336c13.254 0 24-10.746 24-24V144a8 8 0 00-8-8zm-8 24h-88.895a12.39 12.39 0 00-1.867-8H416zm-264-44.8V92.8l24.16-3.015a8 8 0 006.574-5.351 59.495 59.495 0 012.93-7.036 8.002 8.002 0 00-.871-8.437l-14.953-19.2 15.87-15.882 19.2 14.969a7.998 7.998 0 008.45.863 57.911 57.911 0 017.015-2.926 8 8 0 005.352-6.578L228.8 16h22.398l3.016 24.16a8 8 0 005.351 6.574c2.403.825 4.746 1.801 7.02 2.93a7.998 7.998 0 008.469-.863l19.203-14.969 15.902 15.879-14.953 19.2a8.01 8.01 0 00-.871 8.44 59.439 59.439 0 012.93 7.032 7.994 7.994 0 006.574 5.351L328 92.801v22.398l-24.16 3.016a8 8 0 00-6.574 5.351 59.495 59.495 0 01-2.93 7.036 8.002 8.002 0 00.871 8.437l14.953 19.2-15.87 15.882-19.2-14.969a7.998 7.998 0 00-8.45-.863 57.911 57.911 0 01-7.015 2.926 8 8 0 00-5.352 6.578L251.2 192h-22.398l-3.016-24.16a8 8 0 00-5.351-6.574 58.357 58.357 0 01-7.02-2.93 7.99 7.99 0 00-8.445.863l-19.2 14.969-15.93-15.879 14.954-19.2a8.01 8.01 0 00.871-8.44 59.439 59.439 0 01-2.93-7.032 7.994 7.994 0 00-6.574-5.351zm2.762 36.8a12.39 12.39 0 00-1.867 8H64v-8zM416 456a8 8 0 01-8 8H72a8 8 0 01-8-8V176h100.93l11.613 11.625c4.492 4.469 11.605 4.91 16.61 1.023l17.39-13.527 2.738 21.863A12.583 12.583 0 00225.754 208h28.492a12.583 12.583 0 0012.473-11.016l2.738-21.863 17.398 13.535a12.601 12.601 0 0016.61-1.039L315.07 176H416zm0 0M0 160v288a8 8 0 008 8h24v-16H16V168h16v-16H8a8 8 0 00-8 8zm0 0M472 152h-24v16h16v272h-16v16h24a8 8 0 008-8V160a8 8 0 00-8-8zm0 0"/></g></svg>